<?xml version="1.0" encoding="iso-8859-1"?>
<!-- Generator: Adobe Illustrator 19.0.0, SVG Export Plug-In . SVG Version: 6.00 Build 0)  -->
<svg xmlns="http://www.w3.org/2000/svg" xmlns:xlink="http://www.w3.org/1999/xlink" version="1.1" id="Capa_1" x="0px" y="0px" viewBox="0 0 409.6 409.6" style="enable-background:new 0 0 409.6 409.6;" xml:space="preserve">
<path style="fill:#1C75A1;" d="M98.019,12.866h258.908c3.55,0,6.43-2.88,6.43-6.43V6.43c0-3.552-2.879-6.43-6.43-6.43H98.45  C71.564,0,48.089,20.29,46.352,47.117c-1.903,29.4,21.38,53.837,50.367,53.837h260.208c3.55,0,6.43-2.879,6.43-6.429  c0-3.552-2.879-6.43-6.43-6.43H96.716c-22.365,0-40.23-19.627-37.291-42.566C61.854,26.572,78.906,12.866,98.019,12.866z"/>
<path style="fill:#EBF0F3;" d="M354.617,12.866H98.019c-19.113,0-36.165,13.706-38.594,32.664  c-2.939,22.939,14.926,42.566,37.291,42.566h257.903C348.053,74.054,348.053,26.917,354.617,12.866z"/>
<path style="fill:#D5D6DB;" d="M62.402,54.952c2.428-18.957,19.481-32.664,38.595-32.664h250.926  c0.726-3.824,1.612-7.103,2.696-9.423H98.019c-19.112,0-36.165,13.707-38.595,32.663c-0.962,7.509,0.338,14.646,3.262,20.873  C62.045,62.734,61.896,58.9,62.402,54.952z"/>
<path style="fill:#27A2DB;" d="M356.927,100.955H96.72c-1.409,0-2.795-0.098-4.174-0.211v308.609  c1.611,0.153,3.239,0.247,4.891,0.247h250.093c8.74,0,15.827-7.087,15.827-15.829V94.525  C363.356,98.075,360.478,100.955,356.927,100.955z"/>
<path style="fill:#2D93BA;" d="M46.313,50.48h-0.069v307.929c0,26.62,20.325,48.48,46.302,50.944V100.744  C66.64,98.615,46.321,76.94,46.313,50.48z"/>
<path style="fill:#FFFFFF;" d="M299.436,206.793c-4.048-32.124-29.989-58.065-62.113-62.115  c-47.149-5.942-86.799,33.708-80.857,80.856c4.048,32.124,29.99,58.066,62.115,62.114  C265.729,293.59,305.377,253.94,299.436,206.793z"/>
<polygon style="fill:#E56353;" points="281.94,197.285 246.827,197.285 246.827,162.174 209.074,162.174 209.074,197.285   173.962,197.285 173.962,235.04 209.074,235.04 209.074,270.152 246.827,270.152 246.827,235.04 281.94,235.04 "/>
<g>
</g>
<g>
</g>
<g>
</g>
<g>
</g>
<g>
</g>
<g>
</g>
<g>
</g>
<g>
</g>
<g>
</g>
<g>
</g>
<g>
</g>
<g>
</g>
<g>
</g>
<g>
</g>
<g>
</g>
</svg>
