<?xml version="1.0" encoding="iso-8859-1"?>
<!-- Generator: Adobe Illustrator 19.0.0, SVG Export Plug-In . SVG Version: 6.00 Build 0)  -->
<svg xmlns="http://www.w3.org/2000/svg" xmlns:xlink="http://www.w3.org/1999/xlink" version="1.1" id="Capa_1" x="0px" y="0px" viewBox="0 0 409.6 409.6" style="enable-background:new 0 0 409.6 409.6;" xml:space="preserve">
<path style="fill:#FCD462;" d="M302.125,230.486V0H58.136c-8.757,0-15.855,7.098-15.855,15.855v377.891  c0,8.757,7.098,15.855,15.855,15.855h293.327c8.756,0,15.856-7.098,15.856-15.855v-163.26H302.125z"/>
<rect x="302.131" style="fill:#3A556A;" width="11.085" height="50.243"/>
<path style="fill:#64798A;" d="M351.463,0h-38.255v50.242h38.255c8.756,0,15.856,7.245,15.856,16.182V15.855  C367.319,7.098,360.219,0,351.463,0z"/>
<path style="fill:#44C4A1;" d="M351.463,50.242h-38.255v55.477h38.255c8.756,0,15.856,7.098,15.856,15.855V66.424  C367.319,57.487,360.219,50.242,351.463,50.242z"/>
<rect x="302.131" y="50.243" style="fill:#3EA69B;" width="11.085" height="55.475"/>
<rect x="302.131" y="105.718" style="fill:#E1E6E9;" width="11.085" height="58.962"/>
<path style="fill:#EBF0F3;" d="M351.463,105.718h-38.255v58.96h38.255c8.756,0,15.856,7.098,15.856,15.855v-58.96  C367.319,112.817,360.219,105.718,351.463,105.718z"/>
<path style="fill:#27A2DB;" d="M351.463,164.679h-38.255v65.807h54.11v-49.952C367.319,171.777,360.219,164.679,351.463,164.679z"/>
<rect x="302.131" y="164.659" style="fill:#2D93BA;" width="11.085" height="65.807"/>
<path style="fill:#DC8744;" d="M250.329,79.689c-5.558-9.491-13.516-17.449-23.006-23.008  C152.336,12.761,75.293,70.14,82.464,142.559c4.255,42.973,39.013,77.731,81.987,81.986  C236.867,231.717,294.247,154.677,250.329,79.689z"/>
<path style="fill:#FFFFFF;" d="M265.174,116.724c-4.256-42.973-39.014-77.731-81.987-81.987  C125.114,28.987,76.71,77.394,82.465,135.468c4.258,42.97,39.014,77.725,81.985,81.98  C222.523,223.199,270.926,174.795,265.174,116.724z"/>
<polygon style="fill:#E56353;" points="234.749,108.793 191.118,108.793 191.118,65.162 156.52,65.162 156.52,108.793   112.889,108.793 112.889,143.391 156.52,143.391 156.52,187.024 191.118,187.024 191.118,143.391 234.749,143.391 "/>
<g>
	<path style="fill:#DC8744;" d="M327.671,283.357H81.93c-3.675,0-6.654,2.978-6.654,6.653c0,3.674,2.98,6.654,6.654,6.654h245.741   c3.675,0,6.654-2.98,6.654-6.654C334.324,286.335,331.345,283.357,327.671,283.357z"/>
	<path style="fill:#DC8744;" d="M327.671,319.729H81.93c-3.675,0-6.654,2.978-6.654,6.653c0,3.675,2.98,6.654,6.654,6.654h245.741   c3.675,0,6.654-2.98,6.654-6.654C334.324,322.707,331.345,319.729,327.671,319.729z"/>
	<path style="fill:#DC8744;" d="M327.671,356.103H81.93c-3.675,0-6.654,2.978-6.654,6.652c0,3.675,2.98,6.655,6.654,6.655h245.741   c3.675,0,6.654-2.98,6.654-6.655C334.324,359.08,331.345,356.103,327.671,356.103z"/>
</g>
<g>
</g>
<g>
</g>
<g>
</g>
<g>
</g>
<g>
</g>
<g>
</g>
<g>
</g>
<g>
</g>
<g>
</g>
<g>
</g>
<g>
</g>
<g>
</g>
<g>
</g>
<g>
</g>
<g>
</g>
</svg>
