<?xml version="1.0" encoding="iso-8859-1"?>
<!-- Generator: Adobe Illustrator 19.0.0, SVG Export Plug-In . SVG Version: 6.00 Build 0)  -->
<svg xmlns="http://www.w3.org/2000/svg" xmlns:xlink="http://www.w3.org/1999/xlink" version="1.1" id="Capa_1" x="0px" y="0px" viewBox="0 0 409.6 409.6" style="enable-background:new 0 0 409.6 409.6;" xml:space="preserve">
<path style="fill:#64798A;" d="M284.254,33.527H9.974C4.466,33.527,0,38.196,0,43.956v355.216c0,5.759,4.466,10.428,9.974,10.428  h274.28c5.509,0,9.974-4.669,9.974-10.428V43.956C294.228,38.196,289.763,33.527,284.254,33.527z"/>
<rect x="21.944" y="54.221" style="fill:#E1E6E9;" width="250.337" height="335.206"/>
<rect x="21.944" y="46.797" style="fill:#FFFFFF;" width="250.337" height="335.206"/>
<path style="fill:#FCD462;" d="M197.529,30.838H96.7V6.939C96.7,3.107,99.807,0,103.639,0h86.951c3.832,0,6.939,3.107,6.939,6.939  V30.838z"/>
<path style="fill:#F6C358;" d="M197.529,30.838H96.699L75.297,52.24c-3.866,3.865-1.128,10.475,4.339,10.475h134.956  c5.466,0,8.204-6.609,4.339-10.475L197.529,30.838z"/>
<path style="fill:#E56353;" d="M194.968,117.711c-3.3-20.112-19.521-36.333-39.632-39.632c-33.214-5.45-61.524,22.857-56.076,56.072  c3.299,20.112,19.521,36.335,39.634,39.634C172.108,179.234,200.417,150.925,194.968,117.711z"/>
<polygon style="fill:#FFFFFF;" points="183.365,114.088 158.958,114.088 158.958,89.681 135.27,89.681 135.27,114.088   110.863,114.088 110.863,137.778 135.27,137.778 135.27,162.183 158.958,162.183 158.958,137.778 183.365,137.778 "/>
<g>
	<rect x="46.438" y="197.837" style="fill:#EBF0F3;" width="201.37" height="7.444"/>
	<rect x="46.438" y="228.654" style="fill:#EBF0F3;" width="201.37" height="7.45"/>
	<rect x="46.438" y="259.476" style="fill:#EBF0F3;" width="159.744" height="7.45"/>
	<rect x="46.438" y="290.304" style="fill:#EBF0F3;" width="201.37" height="7.45"/>
	<rect x="46.438" y="321.126" style="fill:#EBF0F3;" width="201.37" height="7.444"/>
	<rect x="46.438" y="351.949" style="fill:#EBF0F3;" width="128.666" height="7.444"/>
	<path style="fill:#EBF0F3;" d="M395.395,94.574c-0.299-0.231-0.569-0.485-0.876-0.711c-16.22-11.816-39.165-7.464-51.464,8.393   L227.132,251.727c-7.66,9.876-9.47,22.427-5.974,33.507c1.489,4.716,0.259,9.875-2.77,13.782l-14.885,19.193l11.521,8.935   L395.395,94.574z"/>
</g>
<path style="fill:#64798A;" d="M203.503,318.209l-12.019,15.497c-4.675,6.027-4.596,14.883,0.934,20.134  c0.374,0.354,0.797,0.606,1.193,0.912l21.412-27.609L203.503,318.209z"/>
<path style="fill:#3A556A;" d="M193.611,354.753c6.364,4.922,15.477,3.841,20.408-2.517l12.528-16.155l-11.524-8.937  L193.611,354.753z"/>
<path style="fill:#D5D6DB;" d="M395.395,94.574L215.024,327.144l11.524,8.937l14.886-19.193c3.029-3.907,7.72-6.381,12.657-6.113  c11.602,0.629,23.307-4.248,30.966-14.124l116.865-150.686C414.324,129.972,411.384,106.981,395.395,94.574z"/>
<path style="fill:#FFFFFF;" d="M348.73,104.713L231.865,255.399c-10.362,13.361-7.923,32.661,5.438,43.022l154.45-199.148  C378.392,88.912,359.093,91.352,348.73,104.713z"/>
<path style="fill:#E1E6E9;" d="M391.753,99.274l-154.45,199.148c13.361,10.362,32.66,7.923,43.022-5.438l116.866-150.687  C407.554,128.936,405.114,109.637,391.753,99.274z"/>
<path style="fill:#EBF0F3;" d="M374.269,121.817c-2.148-1.667-5.24-1.274-6.907,0.873L211.136,324.129l7.78,6.033l156.226-201.438  C376.808,126.575,376.418,123.483,374.269,121.817z"/>
<path style="fill:#E56353;" d="M312.381,193.582L211.135,324.128l3.891,3.018l104.263-134.437  C317.14,191.042,314.047,191.433,312.381,193.582z"/>
<path style="fill:#D15241;" d="M320.16,199.616c1.667-2.149,1.278-5.241-0.871-6.907L215.026,327.146l3.889,3.016L320.16,199.616z"/>
<g>
	
		<rect x="393.935" y="130.028" transform="matrix(-0.6128 0.7902 -0.7902 -0.6128 744.2834 -93.0953)" style="fill:#64798A;" width="2.028" height="11.525"/>
	
		<rect x="389.845" y="135.31" transform="matrix(-0.6129 0.7902 -0.7902 -0.6129 741.8892 -81.2998)" style="fill:#64798A;" width="2.028" height="11.525"/>
	
		<rect x="385.789" y="140.548" transform="matrix(-0.6128 0.7902 -0.7902 -0.6128 739.4582 -69.6923)" style="fill:#64798A;" width="2.028" height="11.525"/>
	
		<rect x="381.697" y="145.796" transform="matrix(-0.6128 0.7902 -0.7902 -0.6128 737.0159 -57.9763)" style="fill:#64798A;" width="2.028" height="11.525"/>
	
		<rect x="374.055" y="143.764" transform="matrix(-0.6128 0.7902 -0.7902 -0.6128 726.6391 -47.9595)" style="fill:#64798A;" width="2.028" height="20.531"/>
	
		<rect x="372.893" y="157.155" transform="matrix(-0.6128 0.7902 -0.7902 -0.6128 731.7926 -32.7003)" style="fill:#64798A;" width="2.028" height="11.525"/>
	
		<rect x="368.864" y="162.398" transform="matrix(-0.6128 0.7903 -0.7903 -0.6128 729.4151 -21.1008)" style="fill:#64798A;" width="2.028" height="11.525"/>
	
		<rect x="364.747" y="167.67" transform="matrix(-0.6128 0.7902 -0.7902 -0.6128 726.9578 -9.3166)" style="fill:#64798A;" width="2.028" height="11.52"/>
	
		<rect x="360.663" y="172.913" transform="matrix(-0.6129 0.7902 -0.7902 -0.6129 724.5233 2.3883)" style="fill:#64798A;" width="2.028" height="11.525"/>
	
		<rect x="353.031" y="170.911" transform="matrix(-0.6128 0.7902 -0.7902 -0.6128 714.1816 12.4319)" style="fill:#64798A;" width="2.028" height="20.531"/>
	
		<rect x="351.853" y="184.305" transform="matrix(-0.6128 0.7902 -0.7902 -0.6128 719.3086 27.7077)" style="fill:#64798A;" width="2.028" height="11.525"/>
	
		<rect x="347.798" y="189.553" transform="matrix(-0.6129 0.7902 -0.7902 -0.6129 716.9301 39.4107)" style="fill:#64798A;" width="2.028" height="11.525"/>
	
		<rect x="343.692" y="194.776" transform="matrix(-0.6129 0.7902 -0.7902 -0.6129 714.4263 51.0581)" style="fill:#64798A;" width="2.028" height="11.525"/>
	
		<rect x="339.638" y="200.057" transform="matrix(-0.6128 0.7902 -0.7902 -0.6128 712.0562 62.7645)" style="fill:#64798A;" width="2.028" height="11.525"/>
	
		<rect x="332.009" y="198.041" transform="matrix(-0.6128 0.7902 -0.7902 -0.6128 701.7176 72.8072)" style="fill:#64798A;" width="2.028" height="20.531"/>
	
		<rect x="330.822" y="211.419" transform="matrix(-0.6128 0.7902 -0.7902 -0.6128 706.8155 88.0599)" style="fill:#64798A;" width="2.028" height="11.525"/>
	
		<rect x="326.772" y="216.674" transform="matrix(-0.6128 0.7902 -0.7902 -0.6128 704.4371 99.7343)" style="fill:#64798A;" width="2.028" height="11.525"/>
	
		<rect x="322.662" y="221.913" transform="matrix(-0.6128 0.7902 -0.7902 -0.6128 701.9445 111.4193)" style="fill:#64798A;" width="2.028" height="11.525"/>
	
		<rect x="318.619" y="227.142" transform="matrix(-0.6129 0.7902 -0.7902 -0.6129 699.5614 123.0713)" style="fill:#64798A;" width="2.028" height="11.525"/>
	
		<rect x="310.985" y="225.163" transform="matrix(-0.6128 0.7902 -0.7902 -0.6128 689.2404 133.1642)" style="fill:#64798A;" width="2.028" height="20.531"/>
	
		<rect x="309.815" y="238.501" transform="matrix(-0.6128 0.7902 -0.7902 -0.6128 694.3352 148.3389)" style="fill:#64798A;" width="2.028" height="11.52"/>
	
		<rect x="305.704" y="243.768" transform="matrix(-0.6128 0.7902 -0.7902 -0.6128 691.8673 160.0819)" style="fill:#64798A;" width="2.028" height="11.525"/>
	
		<rect x="301.634" y="249.032" transform="matrix(-0.6128 0.7902 -0.7902 -0.6128 689.4611 171.7894)" style="fill:#64798A;" width="2.028" height="11.52"/>
	
		<rect x="297.571" y="254.3" transform="matrix(-0.6128 0.7903 -0.7903 -0.6128 687.0676 183.467)" style="fill:#64798A;" width="2.028" height="11.525"/>
	
		<rect x="289.922" y="252.252" transform="matrix(-0.6128 0.7902 -0.7902 -0.6128 676.6749 193.4962)" style="fill:#64798A;" width="2.028" height="20.531"/>
	
		<rect x="288.747" y="265.637" transform="matrix(-0.6128 0.7902 -0.7902 -0.6128 681.7996 208.7486)" style="fill:#64798A;" width="2.028" height="11.525"/>
	
		<rect x="284.654" y="270.902" transform="matrix(-0.6128 0.7902 -0.7902 -0.6128 679.3562 220.4643)" style="fill:#64798A;" width="2.028" height="11.525"/>
	
		<rect x="280.58" y="276.177" transform="matrix(-0.6128 0.7902 -0.7902 -0.6128 676.9558 232.2012)" style="fill:#64798A;" width="2.028" height="11.525"/>
	
		<rect x="276.528" y="281.418" transform="matrix(-0.6129 0.7902 -0.7902 -0.6129 674.5623 243.8778)" style="fill:#64798A;" width="2.028" height="11.52"/>
	
		<rect x="268.891" y="279.418" transform="matrix(-0.6128 0.7902 -0.7902 -0.6128 664.222 253.9285)" style="fill:#64798A;" width="2.028" height="20.531"/>
</g>
<g>
</g>
<g>
</g>
<g>
</g>
<g>
</g>
<g>
</g>
<g>
</g>
<g>
</g>
<g>
</g>
<g>
</g>
<g>
</g>
<g>
</g>
<g>
</g>
<g>
</g>
<g>
</g>
<g>
</g>
</svg>
