<?xml version="1.0" encoding="iso-8859-1"?>
<!-- Generator: Adobe Illustrator 19.0.0, SVG Export Plug-In . SVG Version: 6.00 Build 0)  -->
<svg xmlns="http://www.w3.org/2000/svg" xmlns:xlink="http://www.w3.org/1999/xlink" version="1.1" id="Capa_1" x="0px" y="0px" viewBox="0 0 409.6 409.6" style="enable-background:new 0 0 409.6 409.6;" xml:space="preserve">
<g>
	<polygon style="fill:#3A556A;" points="277.696,361.332 131.902,361.332 98.554,409.6 311.044,409.6  "/>
	<ellipse style="fill:#3A556A;" cx="204.8" cy="329.523" rx="19.487" ry="19.702"/>
</g>
<path style="fill:#64798A;" d="M399.196,61.451h-62.488l-1.244,19.009h44.454c5.177,0,9.373,4.243,9.373,9.476v209.047h-68.129  H88.436H20.307V89.936c0-5.233,4.196-9.476,9.371-9.476h44.456l-1.244-19.009H10.404C4.658,61.451,0,66.16,0,71.969v234.546v44.299  c0,5.81,4.658,10.517,10.404,10.517h388.792c5.745,0,10.404-4.707,10.404-10.517v-44.299V71.969  C409.6,66.16,404.941,61.451,399.196,61.451z"/>
<g>
	<path style="fill:#EBF0F3;" d="M29.678,80.46c-5.175,0-9.371,4.243-9.371,9.476v209.047h68.129L74.135,80.46   C74.135,80.46,29.678,80.46,29.678,80.46z"/>
	<path style="fill:#EBF0F3;" d="M389.293,298.983V89.936c0-5.233-4.196-9.476-9.373-9.476h-44.454l-14.302,218.523H389.293z"/>
</g>
<polygon style="fill:#3A556A;" points="335.465,80.46 336.709,61.451 72.891,61.451 74.135,80.46 "/>
<polygon style="fill:#E1E6E9;" points="88.436,298.983 321.163,298.983 335.465,80.46 74.135,80.46 "/>
<rect x="88.422" style="fill:#FFFFFF;" width="232.704" height="299.008"/>
<rect x="103.327" y="32.471" style="fill:#EBF0F3;" width="202.936" height="69.417"/>
<rect x="88.422" style="fill:#FCD462;" width="232.704" height="17.577"/>
<polygon style="fill:#E56353;" points="229,57.128 214.852,57.128 214.852,42.98 194.747,42.98 194.747,57.128 180.599,57.128   180.599,77.233 194.747,77.233 194.747,91.381 214.852,91.381 214.852,77.233 229,77.233 "/>
<g>
	<rect x="103.322" y="124.774" style="fill:#EBF0F3;" width="202.936" height="7.45"/>
	<rect x="103.322" y="151.424" style="fill:#EBF0F3;" width="202.936" height="7.444"/>
	<rect x="103.322" y="178.048" style="fill:#EBF0F3;" width="202.936" height="7.444"/>
	<rect x="103.322" y="204.677" style="fill:#EBF0F3;" width="101.468" height="7.444"/>
</g>
<rect x="241.357" y="230.554" style="fill:#2D93BA;" width="64.886" height="7.45"/>
<rect x="273.818" y="254.961" style="fill:#64798A;" width="32.445" height="7.45"/>
<g>
</g>
<g>
</g>
<g>
</g>
<g>
</g>
<g>
</g>
<g>
</g>
<g>
</g>
<g>
</g>
<g>
</g>
<g>
</g>
<g>
</g>
<g>
</g>
<g>
</g>
<g>
</g>
<g>
</g>
</svg>
