<svg id="_x33_0" enable-background="new 0 0 64 64" height="512" viewBox="0 0 64 64" width="512" xmlns="http://www.w3.org/2000/svg"><g><g><g><path d="m35 33.8-1 3.2h-4l-1-3.2 3-1.8z" fill="#ff826e"/></g><g><path d="m33 48-.06.16c-.29-.11-.61-.16-.94-.16-1.66 0-3 1.34-3 3 0 .35.06.69.18 1h-.01c-.05 0-.11 0-.17 0h-1.14l2.14-15h4l1.37 9.58z" fill="#ff826e"/></g><g><path d="m35.37 46.58-1.37-9.58 1-3.2 2 1.2 1-6.6.02-.11 2.86.41c.38.05.75.13 1.12.23v.07h2v1c0 .71.15 1.39.42 2 .77 1.76 2.53 3 4.58 3v3.86.01c-.29.13-.57.28-.84.44-.76.44-1.46.99-2.08 1.61-.98.98-1.76 2.14-2.28 3.41-.52 1.26-.8 2.63-.8 4.02v3.65h-5-3c-.06 0-.12 0-.17 0h-.01c.12-.31.18-.65.18-1 0-1.33-.86-2.45-2.06-2.84l.06-.16z" fill="#e6e9ed"/></g><g><path d="m21 48.35c0-1.39-.28-2.76-.8-4.02-.52-1.27-1.3-2.43-2.28-3.41-.62-.62-1.32-1.17-2.08-1.61-.27-.16-.55-.31-.84-.44v-.01-3.86c2.05 0 3.81-1.24 4.58-3 .27-.61.42-1.29.42-2v-1h2c0-.02 0-.05 0-.07.37-.1.74-.18 1.12-.23l2.86-.41.02.11 1 6.6 2-1.2 1 3.2-2.14 15h-1.86-5z" fill="#e6e9ed"/></g><g><path d="m43 58v4h-22v-4h5 3c.83 0 1.58-.34 2.12-.88s.88-1.29.88-2.12c0 .83.34 1.58.88 2.12s1.29.88 2.12.88h3z" fill="#e6e9ed"/></g><g><path d="m36 28 2.02.29-.02.11-1 6.6-2-1.2-3-1.8z" fill="#ccd1d9"/></g><g><path d="m32 32-3 1.8-2 1.2-1-6.6-.02-.11 2.02-.29z" fill="#ccd1d9"/></g><g><path d="m21 52h5v6h-5-5.32c-2.91 0-5.62-1.5-7.16-3.97-.82-1.31-1.46-2.55-1.88-3.83-.42-1.3-.64-2.64-.64-4.2v-1c0-2.26.75-4.97 2.11-6.92l5.89 4.92 1.84-3.69c.76.44 1.46.99 2.08 1.61.98.98 1.76 2.14 2.28 3.41.52 1.26.8 2.63.8 4.02z" fill="#ffeaa7"/></g><g><path d="m6 62v-16c0 1.56.22 2.9.64 4.2.42 1.28 1.06 2.52 1.88 3.83 1.54 2.47 4.25 3.97 7.16 3.97h5.32v4z" fill="#ffeaa7"/></g><g><path d="m15.84 39.31-1.84 3.69-5.89-4.92c.27-.4.57-.76.89-1.08l4.38 1.25c.56.16 1.1.36 1.62.62.29.13.57.28.84.44z" fill="#fcd770"/></g><g><path d="m58 46v16h-15v-4h5.32c2.91 0 5.62-1.5 7.16-3.97.82-1.31 1.46-2.55 1.88-3.83.42-1.3.64-2.64.64-4.2z" fill="#5cd6b3"/></g><g><path d="m58 45v1c0 1.56-.22 2.9-.64 4.2-.42 1.28-1.06 2.52-1.88 3.83-1.54 2.47-4.25 3.97-7.16 3.97h-5.32-5v-6h5v-3.65c0-1.39.28-2.76.8-4.02.52-1.27 1.3-2.43 2.28-3.41.62-.62 1.32-1.17 2.08-1.61l1.84 3.69 5.89-4.92c1.36 1.95 2.11 4.66 2.11 6.92z" fill="#5cd6b3"/></g><g><path d="m55.89 38.08-5.89 4.92-1.84-3.69c.27-.16.55-.31.84-.44.52-.26 1.06-.46 1.62-.62l4.38-1.25c.32.32.62.68.89 1.08z" fill="#48cfad"/></g><g><path d="m32.88 57.12c-.54-.54-.88-1.29-.88-2.12 0-.35.06-.69.17-1v-.01c1.23-.06 2.27-.87 2.65-1.99h.01.17 3v6h-3c-.83 0-1.58-.34-2.12-.88z" fill="#f0d0b4"/></g><g><path d="m32 54c.06 0 .11 0 .17-.01v.01c-.11.31-.17.65-.17 1 0 .83-.34 1.58-.88 2.12s-1.29.88-2.12.88h-3v-6h1.86 1.14.17.01c.4 1.17 1.51 2 2.82 2z" fill="#f0d0b4"/></g><g><path d="m32.94 48.16c1.2.39 2.06 1.51 2.06 2.84 0 .35-.06.69-.18 1-.38 1.12-1.42 1.93-2.65 1.99-.06.01-.11.01-.17.01-1.31 0-2.42-.83-2.82-2-.12-.31-.18-.65-.18-1 0-1.66 1.34-3 3-3 .33 0 .65.05.94.16z" fill="#f0d0b4"/></g><g><path d="m19.95 16.47.05.64c0 .85-.27 1.64-.74 2.28-.12.17-.26.33-.4.47-.7.7-1.68 1.14-2.75 1.14-.56 0-1.1-.2-1.49-.56-.94.39-1.77 1-2.42 1.81l-2.2 2.75c-.55 0-1.05.22-1.41.59-.37.36-.59.86-.59 1.41 0 .64.25 1.25.71 1.71l1.29 1.29-.61 4.3-4.75-4.04c-1.68-1.43-2.64-3.53-2.64-5.74v-.41c0-1.33.24-2.63.69-3.85.45-1.23 1.12-2.38 1.98-3.38 2.12-2.46 5.2-3.88 8.44-3.88h2.78c1.13 0 2.16.46 2.91 1.2.31.32.58.69 1.15 2.27z" fill="#656d78"/></g><g><path d="m62 24.52c0 1.1-.24 2.18-.69 3.16s-1.11 1.86-1.95 2.58l-4.73 4.11h-.01l-.62-4.37 1.29-1.29c.46-.46.71-1.07.71-1.71 0-.55-.22-1.05-.59-1.41-.36-.37-.86-.59-1.41-.59l-2.2-2.75c-1.14-1.42-2.86-2.25-4.68-2.25h-3.12c-.64-.64-1-1.51-1-2.41v-1.59c0-1.1.9-2 2-2h4.5c4.09 0 7.94 1.93 10.4 5.2l.59.78c.98 1.31 1.51 2.9 1.51 4.54z" fill="#656d78"/></g><g><path d="m25 18c0 .34.02.67.08 1h-.01-1.07c-.83 0-1.58-.34-2.12-.88-.34-.34-.6-.76-.86-1.81-.01-.1-.02-.21-.02-.31 0-.86.36-1.63.94-2.18.53-.5 1.26-.82 2.06-.82h1v.03z" fill="#f0d0b4"/></g><g><path d="m42.12 18.12c-.54.54-1.29.88-2.12.88h-1.07-.01c.06-.33.08-.66.08-1v-2.76c0-.76-.09-1.51-.28-2.24h.01 1.27c1.66 0 3 1.34 3 3 0 .83-.34 1.58-.88 2.12z" fill="#f0d0b4"/></g><g><path d="m30.42 9-3.53 1.25c-1.13.45-1.88 1.53-1.89 2.75h-1c-.8 0-1.53.32-2.06.82l-.61-1.84c-.22-.65-.33-1.33-.33-2.01 0-1.88.84-3.67 2.28-4.87l.47-.39c1.05-.87 2.24-1.55 3.51-2.01 1.26-.46 2.61-.7 3.98-.7 1.81 0 3.61.42 5.23 1.24l1.53.76c2.21 0 4 1.79 4 4 0 2.07-1.57 3.77-3.58 3.98-.14.01-.28.02-.42.02h-3c-2.05 0-3.81-1.24-4.58-3z" fill="#b27946"/></g><g><path d="m54.62 34.37.38 2.63-4.38 1.25c-.56.16-1.1.36-1.62.62v-.01-3.86c-2.05 0-3.81-1.24-4.58-3-.27-.61-.42-1.29-.42-2v-1h-2c0-.02 0-.05 0-.07.02-4.97 2-8.93 2-8.93h3.12c1.82 0 3.54.83 4.68 2.25l2.2 2.75c.55 0 1.05.22 1.41.59.37.36.59.86.59 1.41 0 .64-.25 1.25-.71 1.71l-1.29 1.29z" fill="#f0d0b4"/></g><g><path d="m35.07 24.29.93 3.71-4 4-4-4 .93-3.71c.92.46 1.96.71 3.07.71s2.15-.25 3.07-.71z" fill="#f0d0b4"/></g><g><path d="m25 18v-4.97c0-.01 0-.02 0-.03.01-1.22.76-2.3 1.89-2.75l3.53-1.25c.77 1.76 2.53 3 4.58 3h3c.14 0 .28-.01.42-.02.12.33.23.67.3 1.02.19.73.28 1.48.28 2.24v2.76c0 .34-.02.67-.08 1-.32 2.34-1.81 4.3-3.85 5.29-.92.46-1.96.71-3.07.71s-2.15-.25-3.07-.71c-.7-.34-1.33-.79-1.88-1.34-1.05-1.05-1.76-2.41-1.97-3.95-.06-.33-.08-.66-.08-1z" fill="#f0d0b4"/></g><g><path d="m9 37 .39-2.7.61-4.3-1.29-1.29c-.46-.46-.71-1.07-.71-1.71 0-.55.22-1.05.59-1.41.36-.37.86-.59 1.41-.59l2.2-2.75c.65-.81 1.48-1.42 2.42-1.81.39.36.93.56 1.49.56 1.07 0 2.05-.44 2.75-1.14.14-.14.28-.3.4-.47.73 1.13 2.72 4.67 2.74 9.54v.07h-2v1c0 .71-.15 1.39-.42 2-.77 1.76-2.53 3-4.58 3v3.86.01c-.52-.26-1.06-.46-1.62-.62z" fill="#f0d0b4"/></g></g><g><circle cx="46" cy="25" r="1"/><path d="m61.287 19.384-.587-.783c-2.63-3.507-6.817-5.601-11.2-5.601h-4.5c-.68 0-1.301.236-1.805.619-.567-.758-1.387-1.314-2.343-1.523 1.295-.904 2.148-2.4 2.148-4.096 0-2.655-2.087-4.813-4.704-4.97l-1.379-.689c-1.753-.877-3.718-1.341-5.681-1.341-2.964 0-5.852 1.045-8.131 2.944l-.463.386c-1.679 1.399-2.642 3.455-2.642 5.641 0 .791.127 1.573.377 2.322l.438 1.314c-.216.287-.397.598-.531.937-.887-1.514-2.513-2.544-4.391-2.544h-2.783c-3.54 0-6.892 1.541-9.194 4.229-1.88 2.194-2.916 4.992-2.916 7.88v.412c0 2.503 1.09 4.873 2.993 6.504l4.325 3.679-.267 1.867c-2.096 2.292-3.051 5.836-3.051 8.429v1 17h16 1 20 1 16v-17-1c0-2.593-.955-6.137-3.051-8.428l-.257-1.8 4.318-3.748c1.9-1.629 2.99-3.999 2.99-6.502 0-1.842-.608-3.667-1.713-5.138zm-19.287 31.616h-6c0-1.137-.482-2.158-1.245-2.887l5.847-3.508c2.096-1.258 3.398-3.558 3.398-6.002v-1.603h-2v1.603c0 1.746-.93 3.389-2.428 4.288l-3.427 2.056-1.123-7.865.553-1.771 2.19 1.314 1.092-7.207 1.876.268c.257.037.51.097.762.157.15.091.317.157.505.157h1c0 2.967 2.167 5.431 5 5.91v2.361c-.961.524-1.854 1.169-2.631 1.946-2.173 2.173-3.369 5.061-3.369 8.133zm-7 6c-1.103 0-2-.897-2-2 0-.049.009-.097.012-.146 1.036-.273 1.901-.946 2.429-1.85h1.558v3.996zm-15-20v4.872c-.401-.586-.855-1.142-1.369-1.656-.777-.776-1.67-1.421-2.631-1.946v-2.36c2.833-.478 5-2.942 5-5.91h1c.188 0 .355-.066.505-.157.252-.06.504-.12.761-.157l1.876-.268 1.092 7.207 2.19-1.314.553 1.771-1.987 13.918h-4.99v-14zm-10.585-9c-.268-.268-.415-.622-.415-1 0-.552.449-1 1-1h.48l2.499-3.123c.425-.532.96-.966 1.559-1.286.467.257 1.003.409 1.569.409 1.103 0 2.111-.38 2.93-.998.736 1.419 1.748 3.886 1.933 6.998h-.97c-.552 0-1 .447-1 1v1c0 .347-.058.678-.142 1h-.622c-.998 0-1.895-.555-2.341-1.447l-1.789.895c.701 1.402 2.034 2.326 3.56 2.513-.71.639-1.638 1.039-2.666 1.039h-3v2h2v1.412c-.116-.037-.226-.089-.342-.122l-3.545-1.012.947-6.631zm14.585-10c-1.103 0-2-.897-2-2s.897-2 2-2zm0 2h.263c.52 2.007 1.796 3.708 3.511 4.78l-.581 2.325-4.21.601c-.015.002-.03.007-.045.009-.265-3.912-1.647-6.861-2.518-8.347.163-.31.294-.637.388-.981.731.973 1.884 1.613 3.192 1.613zm11-7h2.698c.2.728.302 1.477.302 2.236v2.764c0 3.309-2.691 6-6 6s-6-2.691-6-6v-4.969c0-.822.493-1.552 1.219-1.842l2.73-.964c1.067 1.666 2.93 2.775 5.051 2.775zm5 7c.868 0 1.667-.285 2.324-.757.13.322.306.622.511.907-.508 1.188-1.567 4.042-1.789 7.562-.01-.001-.019-.005-.029-.006l-4.209-.601-.581-2.325c1.715-1.073 2.991-2.773 3.511-4.78zm-8 33c-1.103 0-2-.897-2-2s.897-2 2-2 2 .897 2 2-.897 2-2 2zm.619-5.937c-.203-.032-.407-.063-.619-.063-.976 0-1.859.365-2.554.947l1.421-9.947h2.265l1.152 8.063zm-.619-21.063c.828 0 1.627-.127 2.379-.361l.514 2.055-2.893 2.892-2.893-2.893.514-2.055c.752.235 1.551.362 2.379.362zm-4.354 3.06 2.741 2.741-2.622 1.574-.642-4.24zm5.619 6.94h-2.53l-.546-1.747 1.811-1.087 1.811 1.086zm.348-4.199 2.741-2.741.524.075-.642 4.24zm-20.505 7.412c.482.138.946.327 1.398.538l-.836 1.673-3.742-3.119zm15.448 13.787c.528.906 1.394 1.581 2.431 1.854.004.049.013.097.013.146 0 1.103-.897 2-2 2h-2v-4zm22.335-13.786 3.18-.908-3.742 3.118-.836-1.672c.453-.212.916-.4 1.398-.538zm3.695-11.214-1.646 1.646.947 6.632-3.546 1.013c-.116.033-.226.085-.341.122v-1.413h2v-2h-3c-1.028 0-1.956-.4-2.666-1.04 1.526-.187 2.859-1.111 3.56-2.513l-1.789-.895c-.446.893-1.343 1.448-2.341 1.448h-.622c-.084-.322-.142-.653-.142-1v-1c0-.553-.448-1-1-1h-.972c.178-3.215 1.157-5.89 1.621-7h2.467c1.527 0 2.95.684 3.904 1.877l2.5 3.123h.48c.551 0 1 .448 1 1 0 .378-.147.732-.414 1zm-12.586-12c0 1.103-.897 2-2 2v-2.764c0-.415-.033-.827-.082-1.236h.082c1.103 0 2 .897 2 2zm-18.077-10.134.463-.386c1.92-1.6 4.354-2.48 6.852-2.48 1.385 0 2.764.289 4.046.813-1.371.893-2.284 2.432-2.284 4.187h2c0-1.654 1.346-3 3-3s3 1.346 3 3-1.346 3-3 3h-3c-2.206 0-4-1.794-4-4h-2c0 .476.062.936.167 1.38l-2.652.937c-1.198.479-2.055 1.481-2.373 2.683h-.142c-.535 0-1.045.11-1.512.301l-.214-.641c-.182-.545-.274-1.113-.274-1.689 0-1.59.701-3.086 1.923-4.105zm-18.631 23.638c-1.457-1.248-2.292-3.064-2.292-4.983v-.412c0-2.411.864-4.747 2.434-6.579 1.923-2.243 4.72-3.53 7.676-3.53h2.783c1.713 0 3.107 1.394 3.107 3.107 0 1.595-1.298 2.893-2.893 2.893-.493 0-.937-.278-1.054-.662-.139-.454.029-.778.142-.931.191-.259.484-.407.805-.407h1v-2h-1c-.948 0-1.85.455-2.414 1.218-.573.775-.736 1.762-.446 2.706.015.049.039.093.057.14-.674.419-1.282.941-1.78 1.563l-1.934 2.417c-1.408.246-2.483 1.477-2.483 2.956 0 .911.355 1.769 1 2.414l.939.939-.287 2.009zm1.708 15.496c0-1.843.52-3.823 1.355-5.402l5.974 4.978 1.899-3.797c.347.262.68.544.989.852 1.795 1.795 2.783 4.181 2.783 6.719v2.65h-4.382l-2.724-5.447-1.789.895 2.724 5.447c.341.681 1.026 1.105 1.789 1.105h9.382v4h-9.323c-2.581 0-4.939-1.307-6.307-3.496-1.705-2.728-2.37-4.832-2.37-7.504zm0 16v-7.576c.207.373.43.752.673 1.141 1.737 2.777 4.729 4.435 8.004 4.435h4.323v2zm15 0v-2h7c1.2 0 2.266-.542 3-1.382.734.84 1.8 1.382 3 1.382h7v2zm35 0h-13v-2h4.323c3.275 0 6.267-1.658 8.003-4.436.243-.389.466-.768.673-1.141v7.577zm0-15c0 2.672-.665 4.776-2.37 7.504-1.368 2.189-3.726 3.496-6.307 3.496h-9.323v-3.997l9.382-.003c.763 0 1.448-.424 1.789-1.105l2.724-5.447-1.789-.895-2.724 5.447h-4.382v-2.65c0-2.538.988-4.924 2.783-6.719.309-.308.641-.59.989-.852l1.899 3.797 5.974-4.978c.835 1.579 1.355 3.559 1.355 5.402zm1.703-16.491-3.348 2.907-.295-2.062.94-.94c.645-.646 1-1.503 1-2.414 0-1.479-1.075-2.71-2.484-2.956l-1.934-2.417c-1.335-1.669-3.328-2.627-5.466-2.627h-2.65c-.298-.41-.466-.898-.466-1.414v-1.586c0-.552.449-1 1-1h4.5c3.757 0 7.346 1.795 9.6 4.8l.587.784c.847 1.128 1.313 2.526 1.313 3.937 0 1.919-.835 3.735-2.297 4.988z"/><circle cx="18" cy="25" r="1"/><circle cx="29" cy="16" r="1"/><circle cx="35" cy="16" r="1"/><path d="m29.895 18.553-1.789.895.105.211c.722 1.444 2.174 2.341 3.789 2.341s3.067-.897 3.789-2.342l.105-.211-1.789-.895-.105.212c-.381.762-1.147 1.236-2 1.236s-1.619-.474-2-1.236z"/></g></g></svg>