<?xml version="1.0" encoding="iso-8859-1"?>
<!-- Generator: Adobe Illustrator 19.0.0, SVG Export Plug-In . SVG Version: 6.00 Build 0)  -->
<svg xmlns="http://www.w3.org/2000/svg" xmlns:xlink="http://www.w3.org/1999/xlink" version="1.1" id="Capa_1" x="0px" y="0px" viewBox="0 0 409.6 409.6" style="enable-background:new 0 0 409.6 409.6;" xml:space="preserve">
<path style="fill:#EBF0F3;" d="M365.311,61.4H44.288c-11.084,0-20.067,8.984-20.067,20.067v224.391h361.158V81.466  C385.379,70.383,376.394,61.4,365.311,61.4z"/>
<rect x="47.191" y="84.367" style="fill:#64798A;" width="315.238" height="198.523"/>
<rect y="305.869" style="fill:#E1E6E9;" width="409.6" height="27.94"/>
<polygon style="fill:#D5D6DB;" points="409.6,333.797 0,333.797 21.235,348.2 388.365,348.2 "/>
<path style="fill:#64798A;" d="M236.212,316.063h-62.824c-0.836,0-1.513,0.679-1.513,1.514v4.498c0,0.836,0.677,1.514,1.513,1.514  h62.824c0.836,0,1.513-0.678,1.513-1.514v-4.498C237.725,316.742,237.047,316.063,236.212,316.063z"/>
<rect x="67.738" y="110.065" style="fill:#FFFFFF;" width="94.362" height="147.123"/>
<g>
	<path style="fill:#3A556A;" d="M103.444,184.915c-2.745-2.228-5.69-4.832-7.392-6.985c0.924,6.185,3.057,12.377,7.24,17.517   c0.051,0.048,0.1,0.097,0.152,0.144V184.915z"/>
	<path style="fill:#3A556A;" d="M127.867,184.915v10.581c0.059-0.055,0.117-0.11,0.174-0.166c0.766-1.374,3.926-7.342,6.367-16.4   C132.673,180.858,130.199,183.023,127.867,184.915z"/>
</g>
<path style="fill:#F6C358;" d="M129.226,175.496c-1.854,1.772-3.62,3.352-4.9,4.469c-1.265,1.104-2.818,1.702-4.42,1.702h-7.143  c-1.602,0-3.155-0.598-4.42-1.702c-1.28-1.117-3.046-2.698-4.899-4.469v13.262v0.057v34.97h25.782v-34.97v-0.175V175.496z"/>
<path style="fill:#FCD462;" d="M103.444,184.915c1.755,1.425,3.429,2.698,4.641,3.597c1.198,0.889,2.67,1.37,4.187,1.37h6.767  c1.518,0,2.989-0.481,4.187-1.37c1.212-0.9,2.886-2.172,4.641-3.597c2.332-1.893,4.806-4.057,6.541-5.985  c2.167-8.041,3.768-18.515,2.621-30.369h-6.627l-5.231-7.662l-3.822,7.259H98.616c0,0-4.789,14.866-2.564,29.773  C97.754,180.083,100.699,182.687,103.444,184.915z"/>
<path style="fill:#64798A;" d="M145.289,159.223c-2.614-37.219-21.123-30.579-21.123-30.579  C95.598,117.78,87.55,146.951,87.55,146.951c-6.345,36.177,15.894,48.687,15.894,48.687c-0.052-0.062-0.101-0.127-0.152-0.19  c-4.183-5.14-6.316-11.331-7.24-17.517c-2.226-14.906,2.564-29.773,2.564-29.773h22.733l3.822-7.259l5.231,7.662h6.627  c1.147,11.854-0.454,22.328-2.621,30.369c-2.441,9.059-5.601,15.026-6.367,16.4c-0.112,0.2-0.174,0.307-0.174,0.307  C152.291,184.371,145.289,159.223,145.289,159.223z"/>
<path style="fill:#E1E6E9;" d="M154.597,213.184c-3.834-5.65-17.875-11.699-23.737-14.039c0.047,0.337,0.088,0.675,0.121,1.013  c3.117,3.19,8.633,10.098,10.154,20.243l-9.913,1.289l3.431,3.985l-18.337,13.843v17.671h45.736  C162.052,257.189,163.188,225.844,154.597,213.184z"/>
<path style="fill:#FFFFFF;" d="M134.653,225.675l-3.431-3.985l9.913-1.289c-1.521-10.146-7.037-17.054-10.154-20.243  c0.5,5.259-0.685,10.607-2.577,15.496c-4.265,11.021-12.088,19.698-12.088,19.698s-7.822-8.677-12.088-19.698  c-2.049-5.294-3.269-11.127-2.415-16.8l-0.283-0.713l0,0l0,0c0,0-10.184,7.887-12.339,22.261l9.913,1.289l-3.432,3.985  l18.075,13.843v17.671h0.262h2.034h0.272v-17.671L134.653,225.675z"/>
<g>
	<path style="fill:#EBF0F3;" d="M101.856,198.538l-0.327-0.398l0,0l0.283,0.713C101.828,198.748,101.839,198.643,101.856,198.538z"/>
	<path style="fill:#EBF0F3;" d="M95.672,225.675l3.432-3.985l-9.913-1.289c2.155-14.374,12.338-22.259,12.338-22.259   s-21.451,7.845-26.335,15.042c-8.591,12.66-7.455,44.005-7.455,44.005h46.008v-17.671L95.672,225.675z"/>
</g>
<path style="fill:#44C4A1;" d="M104.227,215.653c4.266,11.021,12.088,19.698,12.088,19.698s7.823-8.677,12.088-19.698  c-2.88-9.701-9.52-10.203-9.52-10.203s0.313,1.495,0.318,3.698c0.007,2.857-0.504,6.905-2.886,10.427  c-0.095-0.14-0.183-0.282-0.272-0.424c-3.87-6.164-2.296-13.701-2.296-13.701S107.108,205.952,104.227,215.653z M116.316,221.69  c0.753,0,1.363,0.61,1.363,1.363c0,0.753-0.61,1.363-1.363,1.363c-0.753,0-1.364-0.61-1.364-1.363  C114.952,222.301,115.563,221.69,116.316,221.69z M116.316,227.242c0.753,0,1.363,0.61,1.363,1.363c0,0.753-0.61,1.363-1.363,1.363  c-0.753,0-1.364-0.61-1.364-1.363C114.952,227.852,115.563,227.242,116.316,227.242z"/>
<g>
	<circle style="fill:#FFFFFF;" cx="116.316" cy="223.078" r="1.362"/>
	<circle style="fill:#FFFFFF;" cx="116.316" cy="228.603" r="1.362"/>
</g>
<g>
	<path style="fill:#E1E6E9;" d="M93.526,249.249c-0.878,0-1.743-0.142-2.594-0.427c-8.105-2.711-11.766-17.517-11.918-18.145   l1.677-0.406c0.035,0.145,3.587,14.509,10.79,16.916c2.556,0.853,5.361,0.049,8.333-2.396l1.096,1.331   C98.38,248.203,95.906,249.249,93.526,249.249z"/>
	<path style="fill:#E1E6E9;" d="M85.566,251.092c-1.162,0-2.417-0.162-3.762-0.484l0.403-1.677c3.743,0.899,6.616,0.396,8.541-1.491   c5.424-5.315,2.335-19.785,2.303-19.931l1.684-0.369c0.139,0.632,3.324,15.547-2.778,21.53   C90.312,250.283,88.172,251.092,85.566,251.092z"/>
</g>
<g>
	<path style="fill:#2F4859;" d="M91.453,221.036c-1.392-1.271-2.952-2.024-4.537-2.216c3.297-14.738,16.884-21.295,17.026-21.361   l-1.098-2.341c-0.633,0.296-15.357,7.373-18.61,23.927c-4.16,1.233-6.592,6.513-5.567,12.192c0.039,0.212,0.249,0.351,0.461,0.307   l1.778-0.37c0.206-0.042,0.335-0.241,0.298-0.447c-0.801-4.52,0.984-8.642,4.078-9.285c1.462-0.304,3.034,0.231,4.428,1.504   c1.431,1.306,2.492,3.209,3.012,5.388c0.048,0.204,0.246,0.334,0.451,0.292l1.778-0.37c0.212-0.044,0.35-0.254,0.3-0.464   C94.615,225.089,93.276,222.701,91.453,221.036z"/>
	<path style="fill:#2F4859;" d="M139.518,201.311c-4.63-5.309-9.626-6.257-9.835-6.295l-0.457,2.545   c0.176,0.032,17.644,3.542,15.188,35.469l2.578,0.199C148.087,218.993,145.572,208.254,139.518,201.311z"/>
</g>
<g>
	<path style="fill:#64798A;" d="M101.808,242.474c-0.698-0.071-1.925,1.497-2.388,2.128c-0.112,0.152-0.112,0.358-0.001,0.513   l0.999,1.398c0.109,0.155,0.304,0.221,0.485,0.165c0.747-0.234,2.628-0.887,2.787-1.57   C103.873,244.319,102.613,242.556,101.808,242.474z"/>
	<path style="fill:#64798A;" d="M78.637,250.612c0.408,0.57,2.396,0.452,3.175,0.381c0.188-0.017,0.344-0.154,0.386-0.338   l0.386-1.675c0.043-0.184-0.036-0.374-0.198-0.473c-0.671-0.406-2.405-1.382-3.022-1.05   C78.652,247.843,78.165,249.955,78.637,250.612z"/>
</g>
<path style="fill:#EBF0F3;" d="M147.209,235.215l0.222-2.535c0.015-0.176-0.116-0.331-0.291-0.347l-2.797-0.244  c-0.176-0.015-0.332,0.116-0.347,0.291l-0.179,2.056c-4.465,0.03-8.016,3.903-7.505,8.478c0.39,3.482,3.205,6.294,6.687,6.679  c4.588,0.509,8.473-3.069,8.473-7.556C151.472,239.038,149.731,236.453,147.209,235.215z"/>
<path style="fill:#D5D6DB;" d="M147.764,239.452c2.497,4.444-2.037,8.978-6.481,6.482c-0.533-0.3-1.008-0.773-1.308-1.307  c-2.504-4.445,2.035-8.986,6.483-6.483C146.99,238.444,147.464,238.918,147.764,239.452z"/>
<path style="fill:#EBF0F3;" d="M147.286,239.931c1.983,3.749-1.782,7.509-5.528,5.522c-0.539-0.286-1.019-0.765-1.305-1.304  c-1.99-3.75,1.78-7.516,5.53-5.523C146.521,238.911,147,239.392,147.286,239.931z"/>
<path style="fill:#64798A;" d="M144.384,241.867c0.13,0.428-0.252,0.814-0.68,0.689c-0.151-0.045-0.304-0.196-0.351-0.346  c-0.134-0.43,0.255-0.821,0.687-0.688C144.187,241.568,144.338,241.719,144.384,241.867z"/>
<g>
	<path style="fill:#3EA69B;" d="M104.227,215.653c2.88-9.701,9.52-10.203,9.52-10.203c-9.905-5.503-10.822-11.006-10.822-11.006   c-0.494,1.348-0.842,2.716-1.069,4.094c-0.017,0.105-0.029,0.21-0.044,0.315C100.959,204.527,102.179,210.36,104.227,215.653z"/>
	<path style="fill:#3EA69B;" d="M128.403,215.653c1.892-4.889,3.077-10.237,2.577-15.496c-0.033-0.338-0.074-0.675-0.121-1.013   c-0.218-1.583-0.587-3.155-1.153-4.701c0,0-0.918,5.503-10.823,11.006C118.883,205.451,125.523,205.952,128.403,215.653z"/>
</g>
<path style="fill:#44C4A1;" d="M150.758,122.839c-23.155-7.837-46.851-7.495-71.023,0.034c-1.165,0.363-1.805,1.556-1.42,2.668  l8.379,24.195h57.026l8.398-24.248C152.496,124.399,151.89,123.222,150.758,122.839z"/>
<path style="fill:#FFFFFF;" d="M125.153,126.123c7.295,11.989-5.232,24.522-17.225,17.229c-1.067-0.649-2.001-1.583-2.65-2.65  c-7.286-11.99,5.235-24.511,17.225-17.227C123.57,124.123,124.504,125.056,125.153,126.123z"/>
<polygon style="fill:#E56353;" points="123.276,130.866 117.766,130.866 117.766,125.356 112.668,125.356 112.668,130.866   107.159,130.866 107.159,135.963 112.668,135.963 112.668,141.473 117.766,141.473 117.766,135.963 123.276,135.963 "/>
<g>
	<rect x="193.024" y="123.085" style="fill:#FFFFFF;" width="143.411" height="7.45"/>
	<rect x="193.024" y="151.485" style="fill:#FFFFFF;" width="143.411" height="7.45"/>
	<rect x="193.024" y="179.917" style="fill:#FFFFFF;" width="143.411" height="7.45"/>
	<rect x="193.024" y="208.323" style="fill:#FFFFFF;" width="143.411" height="7.45"/>
	<rect x="193.024" y="236.749" style="fill:#FFFFFF;" width="71.68" height="7.45"/>
</g>
<g>
</g>
<g>
</g>
<g>
</g>
<g>
</g>
<g>
</g>
<g>
</g>
<g>
</g>
<g>
</g>
<g>
</g>
<g>
</g>
<g>
</g>
<g>
</g>
<g>
</g>
<g>
</g>
<g>
</g>
</svg>
