<svg id="Capa_1" enable-background="new 0 0 512 512" height="512" viewBox="0 0 512 512" width="512" xmlns="http://www.w3.org/2000/svg"><g><path d="m482.909 396.606h-453.818c-11.924 0-21.591-9.666-21.591-21.591v-345.924c0-11.925 9.666-21.591 21.591-21.591h453.819c11.924 0 21.591 9.666 21.591 21.591v345.924c-.001 11.924-9.668 21.591-21.592 21.591z" fill="#617881"/><path d="m482.909 7.5h-18.439c11.924 0 21.591 9.667 21.591 21.591v345.924c0 11.924-9.666 21.59-21.591 21.59h18.439c11.924 0 21.591-9.667 21.591-21.59v-345.924c0-11.925-9.666-21.591-21.591-21.591z" fill="#475959"/><path d="m47.5 323.249v-271.259c0-2.479 2.01-4.489 4.489-4.489h408.021c2.479 0 4.489 2.01 4.489 4.489v271.259c0 2.479-2.01 4.489-4.489 4.489h-408.021c-2.479 0-4.489-2.01-4.489-4.489z" fill="#f6f1f1"/><path d="m460.01 47.5h-17.174c2.479 0 4.489 2.01 4.489 4.489v271.259c0 2.479-2.01 4.489-4.489 4.489h17.174c2.479 0 4.489-2.01 4.489-4.489v-271.258c.001-2.48-2.009-4.49-4.489-4.49z" fill="#efe7e4"/><path d="m155.672 504.5c35.423-34.675 51.762-70.592 46.805-107.895h107.045c-4.957 37.303 11.382 73.22 46.805 107.895z" fill="#617881"/><path d="m202.477 396.605c.812 6.114 1.041 12.189.719 18.229h105.606c-.322-6.04-.093-12.115.719-18.229z" fill="#475959"/><g><g><g><circle cx="208.306" cy="182.405" fill="#dd636e" r="43.156"/><path d="m208.306 139.249c-3.485 0-6.869.424-10.114 1.204 18.953 4.553 33.042 21.603 33.042 41.952s-14.089 37.399-33.042 41.952c3.245.78 6.629 1.204 10.114 1.204 23.834 0 43.156-19.322 43.156-43.156s-19.322-43.156-43.156-43.156z" fill="#da4a54"/></g><g><path d="m178.308 128.667c0-19.049-15.442-34.491-34.491-34.491-19.049 0-34.491 15.442-34.491 34.491v33.701h68.983v-33.701z" fill="#eab14d"/><path d="m143.816 94.176c-3.153 0-6.204.431-9.106 1.224 14.629 3.995 25.386 17.372 25.386 33.268v33.701h18.211v-33.701c.001-19.05-15.442-34.492-34.491-34.492z" fill="#e7a52e"/><path d="m109.325 162.368v33.701c0 19.049 15.442 34.492 34.491 34.492 19.049 0 34.491-15.442 34.491-34.492v-33.701z" fill="#fff0af"/><path d="m160.097 162.368v33.701c0 15.896-10.757 29.273-25.386 33.268 2.902.792 5.952 1.224 9.105 1.224 19.049 0 34.491-15.442 34.491-34.492v-33.701z" fill="#ffe07d"/></g></g><g><path d="m387.801 281.063h-93.138c-8.214 0-14.874-6.659-14.874-14.874v-26.73c0-8.214 6.659-14.874 14.874-14.874h93.138c8.214 0 14.874 6.659 14.874 14.874v26.73c-.001 8.215-6.66 14.874-14.874 14.874z" fill="#78c2a4"/><path d="m387.801 224.586h-23.884c8.214 0 14.874 6.659 14.874 14.874v26.73c0 8.214-6.659 14.874-14.874 14.874h23.884c8.214 0 14.874-6.659 14.874-14.874v-26.73c-.001-8.215-6.66-14.874-14.874-14.874z" fill="#66b394"/></g></g><g><path d="m374.897 419.651h-21.959c-3.524 0-6.38-2.857-6.38-6.38v-16.665h34.72v16.665c-.001 3.524-2.858 6.38-6.381 6.38z" fill="#475959"/></g><g><path d="m442.273 419.651h-21.959c-3.524 0-6.38-2.857-6.38-6.38v-16.665h34.72v16.665c-.001 3.524-2.857 6.38-6.381 6.38z" fill="#475959"/></g><g><path d="m472 323.248v-271.259c0-6.611-5.378-11.989-11.989-11.989h-408.022c-6.611 0-11.989 5.378-11.989 11.989v271.259c0 6.611 5.378 11.989 11.989 11.989h408.021c6.612 0 11.99-5.378 11.99-11.989zm-15-3.011h-402v-265.237h402z"/><path d="m143.816 238.061c13.35 0 25.265-6.263 32.962-16.004 1.293 1.026 2.639 1.992 4.032 2.893 8.481 5.48 17.998 8.097 27.415 8.097 16.633 0 32.944-8.168 42.625-23.146 7.092-10.974 9.652-24.095 7.21-36.947-.773-4.069-4.708-6.743-8.769-5.968-3.785.719-6.36 4.166-6.08 7.919h-57.404v-20.179c11.904-9.703 28.776-10.717 41.851-2.268 1.119.724 2.208 1.522 3.329 2.444 3.202 2.63 7.928 2.166 10.557-1.033 2.63-3.2 2.167-7.927-1.033-10.557-1.545-1.269-3.129-2.431-4.71-3.452-15.32-9.901-34.315-10.653-49.993-2.872v-8.322c0-23.154-18.838-41.992-41.992-41.992s-41.991 18.838-41.991 41.992v67.402c0 23.156 18.837 41.993 41.991 41.993zm0-15c-14.883 0-26.991-12.108-26.991-26.991v-26.201h53.983v26.201c.001 14.882-12.108 26.991-26.992 26.991zm99.355-33.157c-.895 4.171-2.546 8.184-4.918 11.854-10.673 16.513-32.79 21.263-49.301 10.593-1.788-1.155-3.463-2.461-5.006-3.9 1.21-3.915 1.863-8.073 1.863-12.381v-6.165h57.362zm-126.346-61.237c0-14.884 12.108-26.992 26.991-26.992 14.884 0 26.992 12.108 26.992 26.992v26.201h-53.983z"/><path d="m294.663 288.562h93.138c12.337 0 22.374-10.037 22.374-22.374v-26.729c0-12.337-10.037-22.374-22.374-22.374h-93.138c-12.337 0-22.373 10.037-22.373 22.374v26.729c0 12.337 10.036 22.374 22.373 22.374zm-7.373-49.103c0-4.066 3.308-7.374 7.373-7.374h93.138c4.066 0 7.374 3.308 7.374 7.374v26.729c0 4.066-3.308 7.374-7.374 7.374h-93.138c-4.065 0-7.373-3.308-7.373-7.374z"/><path d="m281.244 101.675h121.431c4.143 0 7.5-3.357 7.5-7.5s-3.357-7.5-7.5-7.5h-121.431c-4.143 0-7.5 3.357-7.5 7.5s3.358 7.5 7.5 7.5z"/><path d="m281.244 139.544h121.431c4.143 0 7.5-3.357 7.5-7.5s-3.357-7.5-7.5-7.5h-121.431c-4.143 0-7.5 3.357-7.5 7.5s3.358 7.5 7.5 7.5z"/><path d="m281.244 177.413h121.431c4.143 0 7.5-3.357 7.5-7.5s-3.357-7.5-7.5-7.5h-121.431c-4.143 0-7.5 3.357-7.5 7.5s3.358 7.5 7.5 7.5z"/><path d="m240.588 350.784c-4.143 0-7.5 3.357-7.5 7.5s3.357 7.5 7.5 7.5h30.825c4.143 0 7.5-3.357 7.5-7.5s-3.357-7.5-7.5-7.5z"/><path d="m248.5 433.742v16.811c0 4.143 3.357 7.5 7.5 7.5s7.5-3.357 7.5-7.5v-16.811c0-4.143-3.357-7.5-7.5-7.5s-7.5 3.358-7.5 7.5z"/><path d="m482.909 0h-361.001c-4.143 0-7.5 3.357-7.5 7.5s3.357 7.5 7.5 7.5h361.001c7.77 0 14.091 6.321 14.091 14.091v345.924c0 7.77-6.321 14.091-14.091 14.091h-453.818c-7.77 0-14.091-6.321-14.091-14.091v-345.924c0-7.77 6.321-14.091 14.091-14.091h63.817c4.143 0 7.5-3.357 7.5-7.5s-3.357-7.5-7.5-7.5h-63.817c-16.041 0-29.091 13.05-29.091 29.091v345.924c0 16.041 13.05 29.091 29.091 29.091h166.578c1.851 31.103-12.616 62.311-43.083 92.895h-30.677c-4.143 0-7.5 3.357-7.5 7.5s3.357 7.5 7.5 7.5h268.184c4.143 0 7.5-3.357 7.5-7.5s-3.357-7.5-7.5-7.5h-30.676c-6.216-6.242-11.841-12.584-16.746-18.886-2.545-3.268-7.256-3.855-10.525-1.312-3.269 2.545-3.856 7.257-1.312 10.525 2.511 3.225 5.19 6.454 8.026 9.673h-165.717c26.598-30.215 39.197-61.369 37.555-92.895h90.606c-.967 18.641 3.038 37.252 11.945 55.441 1.82 3.719 6.31 5.26 10.034 3.437 3.72-1.821 5.259-6.313 3.437-10.034-7.886-16.105-11.37-32.505-10.39-48.844h22.727v9.165c0 7.654 6.227 13.881 13.881 13.881h21.959c7.654 0 13.881-6.227 13.881-13.881v-9.165h17.656v9.165c0 7.654 6.227 13.881 13.88 13.881h21.96c7.653 0 13.88-6.227 13.88-13.881v-9.165h26.756c16.041 0 29.091-13.05 29.091-29.091v-345.924c-.001-16.041-13.051-29.091-29.092-29.091zm-109.132 412.151h-19.721v-8.046h19.721zm67.376 0h-19.72v-8.046h19.72z"/></g></g></svg>