<?xml version="1.0" encoding="iso-8859-1"?>
<!-- Generator: Adobe Illustrator 19.0.0, SVG Export Plug-In . SVG Version: 6.00 Build 0)  -->
<svg xmlns="http://www.w3.org/2000/svg" xmlns:xlink="http://www.w3.org/1999/xlink" version="1.1" id="Capa_1" x="0px" y="0px" viewBox="0 0 409.6 409.6" style="enable-background:new 0 0 409.6 409.6;" xml:space="preserve">
<path style="fill:#64798A;" d="M341.94,33.527H67.66c-5.507,0-9.974,4.669-9.974,10.429v355.216c0,5.759,4.467,10.428,9.974,10.428  h274.28c5.509,0,9.974-4.669,9.974-10.428V43.956C351.914,38.196,347.449,33.527,341.94,33.527z"/>
<rect x="79.631" y="54.221" style="fill:#E1E6E9;" width="250.337" height="335.206"/>
<rect x="79.631" y="46.797" style="fill:#FFFFFF;" width="250.337" height="335.206"/>
<path style="fill:#FCD462;" d="M255.215,30.838h-100.83V6.939c0-3.832,3.107-6.939,6.939-6.939h86.951  c3.832,0,6.939,3.107,6.939,6.939V30.838z"/>
<path style="fill:#F6C358;" d="M255.215,30.838h-100.83L132.983,52.24c-3.866,3.865-1.128,10.475,4.339,10.475h134.957  c5.467,0,8.205-6.609,4.339-10.475L255.215,30.838z"/>
<path style="fill:#E56353;" d="M252.653,117.712c-3.299-20.113-19.521-36.334-39.633-39.634  c-33.214-5.449-61.522,22.86-56.074,56.074c3.3,20.112,19.522,36.335,39.634,39.634  C229.794,179.234,258.103,150.925,252.653,117.712z"/>
<polygon style="fill:#FFFFFF;" points="241.051,114.088 216.644,114.088 216.644,89.681 192.956,89.681 192.956,114.088   168.549,114.088 168.549,137.778 192.956,137.778 192.956,162.183 216.644,162.183 216.644,137.778 241.051,137.778 "/>
<g>
	<rect x="104.12" y="197.837" style="fill:#EBF0F3;" width="201.37" height="7.444"/>
	<rect x="104.12" y="228.654" style="fill:#EBF0F3;" width="201.37" height="7.45"/>
	<rect x="104.12" y="259.476" style="fill:#EBF0F3;" width="159.744" height="7.45"/>
	<rect x="104.12" y="290.304" style="fill:#EBF0F3;" width="201.37" height="7.444"/>
	<rect x="104.12" y="321.126" style="fill:#EBF0F3;" width="201.37" height="7.444"/>
	<rect x="104.12" y="351.949" style="fill:#EBF0F3;" width="128.666" height="7.444"/>
</g>
<g>
</g>
<g>
</g>
<g>
</g>
<g>
</g>
<g>
</g>
<g>
</g>
<g>
</g>
<g>
</g>
<g>
</g>
<g>
</g>
<g>
</g>
<g>
</g>
<g>
</g>
<g>
</g>
<g>
</g>
</svg>
