<?xml version="1.0" encoding="iso-8859-1"?>
<!-- Generator: Adobe Illustrator 19.0.0, SVG Export Plug-In . SVG Version: 6.00 Build 0)  -->
<svg xmlns="http://www.w3.org/2000/svg" xmlns:xlink="http://www.w3.org/1999/xlink" version="1.1" id="Capa_1" x="0px" y="0px" viewBox="0 0 409.6 409.6" style="enable-background:new 0 0 409.6 409.6;" xml:space="preserve">
<path style="fill:#FCD462;" d="M8.98,124.433c-6.098,0.705-10.176,6.621-8.664,12.57l30.621,120.57  c1.144,4.496,5.19,7.644,9.83,7.644h224.366l50.921-176.184L8.98,124.433z"/>
<polygon style="fill:#E56353;" points="211.176,169.33 173.618,169.33 173.618,131.772 132.515,131.772 132.515,169.33   94.958,169.33 94.958,210.431 132.515,210.431 132.515,247.99 173.618,247.99 173.618,210.431 211.176,210.431 "/>
<path style="fill:#EBF0F3;" d="M341.112,33.96c-10.604,0-20.063,7.112-23.011,17.302l-61.669,213.662  c-2.367,8.217-0.847,16.899,4.169,23.821l12.291,16.957c5.248,7.246,5.954,16.331,1.885,24.294  c-4.069,7.969-11.833,12.723-20.778,12.723H9.682c-4.7,0-8.504,3.808-8.504,8.503c0,4.696,3.804,8.504,8.504,8.504h244.317  c15.239,0,29-8.429,35.926-21.998c6.926-13.57,5.68-29.663-3.264-42.004l-12.291-16.962c-1.919-2.654-2.5-5.975-1.594-9.122  l61.668-213.658c0.856-2.952,3.596-5.016,6.668-5.016h13.969V33.96H341.112z"/>
<path style="fill:#3A556A;" d="M70.758,336.037c16.499,28.677-12.963,58.143-41.643,41.645c-3.235-1.861-5.966-4.592-7.827-7.827  c-16.498-28.68,12.968-58.142,41.645-41.644C66.167,330.073,68.897,332.803,70.758,336.037z"/>
<path style="fill:#64798A;" d="M62.778,340.107c13.039,20.737-8.853,42.633-29.593,29.595c-1.574-0.989-2.927-2.342-3.917-3.916  c-13.038-20.74,8.859-42.632,29.595-29.593C60.436,337.181,61.788,338.533,62.778,340.107z"/>
<g>
	<path style="fill:#3A556A;" d="M53.677,347.461c5.442,9.115-4.026,18.579-13.14,13.137c-0.873-0.521-1.641-1.289-2.163-2.162   c-5.449-9.117,4.027-18.591,13.142-13.138C52.388,345.82,53.155,346.588,53.677,347.461z"/>
	<path style="fill:#3A556A;" d="M247.919,336.034c16.503,28.678-12.961,58.147-41.643,41.648c-3.235-1.861-5.966-4.593-7.827-7.827   c-16.494-28.678,12.964-58.138,41.643-41.645C243.327,330.069,246.058,332.799,247.919,336.034z"/>
</g>
<path style="fill:#64798A;" d="M239.937,340.103c13.048,20.74-8.855,42.642-29.595,29.595c-1.573-0.99-2.926-2.342-3.914-3.916  c-13.03-20.737,8.856-42.623,29.593-29.593C237.594,337.177,238.947,338.529,239.937,340.103z"/>
<g>
	<path style="fill:#3A556A;" d="M230.838,347.458c5.445,9.116-4.026,18.584-13.141,13.138c-0.873-0.522-1.641-1.29-2.163-2.163   c-5.446-9.115,4.026-18.586,13.141-13.139C229.548,345.818,230.316,346.586,230.838,347.458z"/>
	<path style="fill:#3A556A;" d="M396.844,29.708h-41.859c-0.135-1.409-1.237-2.547-2.683-2.547c-1.532,0-2.776,1.244-2.776,2.778   v25.051c0,1.533,1.244,2.776,2.776,2.776c1.446,0,2.548-1.137,2.683-2.546h41.859c7.034,0,12.756-5.722,12.756-12.755   C409.6,35.43,403.878,29.708,396.844,29.708z"/>
</g>
<g>
</g>
<g>
</g>
<g>
</g>
<g>
</g>
<g>
</g>
<g>
</g>
<g>
</g>
<g>
</g>
<g>
</g>
<g>
</g>
<g>
</g>
<g>
</g>
<g>
</g>
<g>
</g>
<g>
</g>
</svg>
