<?xml version="1.0" encoding="iso-8859-1"?>
<!-- Generator: Adobe Illustrator 19.0.0, SVG Export Plug-In . SVG Version: 6.00 Build 0)  -->
<svg version="1.1" id="Capa_1" xmlns="http://www.w3.org/2000/svg" xmlns:xlink="http://www.w3.org/1999/xlink" x="0px" y="0px"
	 viewBox="0 0 512 512" style="enable-background:new 0 0 512 512;" xml:space="preserve">
<g>
	<rect x="61.6" y="147.2" style="fill:#FFFFFF;" width="442.4" height="356.8"/>
	<rect x="61.6" y="61.6" style="fill:#FFFFFF;" width="442.4" height="85.6"/>
</g>
<rect x="8" y="93.6" style="fill:#4FBF9F;" width="442.4" height="356.8"/>
<g>
	<rect x="40" y="125.6" style="fill:#FFFFFF;" width="378.4" height="292.8"/>
	<rect x="8" y="8" style="fill:#FFFFFF;" width="442.4" height="85.6"/>
</g>
<path style="fill:#193651;" d="M458.4,53.6V0H0v458.4h53.6V512H512V53.6H458.4z M16,16h426.4v69.6H16V16z M16,101.6h426.4v340.8H16
	V101.6z M496,496H69.6v-37.6h388V155.2H496V496z M458.4,139.2V69.6H496v69.6H458.4z"/>
<path style="fill:#F16051;" d="M170.4,376l30.4,12l12.8-21.6c11.2,1.6,22.4,1.6,33.6-0.8l13.6,21.6l30.4-13.6l-6.4-24.8
	c8.8-6.4,16.8-14.4,23.2-24l24.8,5.6l12-30.4l-21.6-12.8c1.6-11.2,1.6-22.4-0.8-33.6L344,240l-13.6-30.4l-24,6.4
	c-6.4-8.8-14.4-16.8-24-23.2L288,168l-30.4-12l-12.8,21.6c-11.2-1.6-22.4-1.6-33.6,0.8l-13.6-21.6l-30.4,13.6l6.4,24.8
	c-8.8,6.4-16.8,14.4-23.2,24l-24.8-5.6l-12,30.4l21.6,12.8c-1.6,11.2-1.6,22.4,0.8,33.6L114.4,304l13.6,30.4l24-6.4
	c6.4,8.8,14.4,16.8,24,23.2L170.4,376z"/>
<g>
	<circle style="fill:#193651;" cx="57.6" cy="50.4" r="12"/>
	<circle style="fill:#193651;" cx="104" cy="50.4" r="12"/>
	<circle style="fill:#193651;" cx="149.6" cy="50.4" r="12"/>
</g>
<circle style="fill:#FFFFFF;" cx="228.8" cy="272" r="68.8"/>
<g>
	<circle style="fill:#2EA2DB;" cx="228.8" cy="244" r="23.2"/>
	<path style="fill:#2EA2DB;" d="M228.8,340.8c23.2,0,43.2-11.2,56-28.8c-4-20.8-27.2-36.8-56-36.8c-28,0-52,16-56,36.8
		C185.6,329.6,206.4,340.8,228.8,340.8z"/>
</g>
<g>
</g>
<g>
</g>
<g>
</g>
<g>
</g>
<g>
</g>
<g>
</g>
<g>
</g>
<g>
</g>
<g>
</g>
<g>
</g>
<g>
</g>
<g>
</g>
<g>
</g>
<g>
</g>
<g>
</g>
</svg>
