<?xml version="1.0" encoding="iso-8859-1"?>
<!-- Generator: Adobe Illustrator 19.0.0, SVG Export Plug-In . SVG Version: 6.00 Build 0)  -->
<svg xmlns="http://www.w3.org/2000/svg" xmlns:xlink="http://www.w3.org/1999/xlink" version="1.1" id="Capa_1" x="0px" y="0px" viewBox="0 0 409.6 409.6" style="enable-background:new 0 0 409.6 409.6;" xml:space="preserve">
<rect x="45.389" style="fill:#EBF0F3;" width="318.822" height="409.6"/>
<rect x="45.389" style="fill:#27A2DB;" width="318.822" height="24.079"/>
<polygon style="fill:#E56353;" points="139.804,65.066 120.421,65.066 120.421,45.684 92.879,45.684 92.879,65.066 73.496,65.066   73.496,92.609 92.879,92.609 92.879,111.992 120.421,111.992 120.421,92.609 139.804,92.609 "/>
<rect x="254.915" y="322.309" style="fill:#2D93BA;" width="88.893" height="10.204"/>
<rect x="299.372" y="355.738" style="fill:#64798A;" width="44.447" height="10.204"/>
<g>
	<rect x="160.005" y="52.275" style="fill:#D5D6DB;" width="80.819" height="7.45"/>
	<rect x="160.005" y="75.116" style="fill:#D5D6DB;" width="44.79" height="7.45"/>
	<rect x="160.005" y="97.946" style="fill:#D5D6DB;" width="61.491" height="7.45"/>
	<path style="fill:#D5D6DB;" d="M68.206,130.611v150.181h273.2V130.611H68.206z M333.959,153.477h-55.666v-15.418h55.666V153.477z    M222.744,160.924v112.422h-112.37V160.924H222.744z M110.374,153.477v-15.418h112.37v15.418H110.374z M230.191,160.924h40.655   v112.422h-40.655V160.924z M230.191,153.477v-15.418h40.655v15.418H230.191z M102.926,138.058v15.418H75.653v-15.418H102.926z    M75.653,160.924h27.273v112.422H75.653V160.924z M278.293,273.346V160.924h55.666v112.422H278.293z"/>
</g>
<path style="fill:#F6C358;" d="M99.107,388.997v-7.6c-9.515-0.974-18.054-4.753-25.612-11.353l7.6-9.056  c5.829,5.066,11.827,8.091,18.012,9.056v-20.197c-7.845-1.873-13.59-4.33-17.232-7.389c-3.643-3.049-5.465-7.583-5.465-13.589  c0-5.999,2.092-10.912,6.294-14.726c4.202-3.821,9.667-5.905,16.402-6.253v-5.202h6.66v5.312c7.633,0.551,14.852,3.161,21.655,7.803  l-6.77,9.583c-4.583-3.262-9.539-5.279-14.885-6.042v19.572h0.313c7.981,1.872,13.844,4.414,17.589,7.6  c3.753,3.194,5.625,7.828,5.625,13.903s-2.152,11.015-6.455,14.836c-4.305,3.812-9.989,5.897-17.072,6.244v7.498H99.107z   M91.762,321.795c-1.771,1.559-2.652,3.508-2.652,5.829c0,2.33,0.695,4.16,2.085,5.515c1.38,1.355,4.024,2.66,7.913,3.906v-18.013  C95.981,319.312,93.533,320.236,91.762,321.795z M113.68,367.443c1.94-1.592,2.914-3.609,2.914-6.041  c0-2.424-0.762-4.355-2.287-5.778c-1.534-1.415-4.38-2.753-8.54-4.007v18.741C109.097,370.011,111.731,369.045,113.68,367.443z"/>
<g>
</g>
<g>
</g>
<g>
</g>
<g>
</g>
<g>
</g>
<g>
</g>
<g>
</g>
<g>
</g>
<g>
</g>
<g>
</g>
<g>
</g>
<g>
</g>
<g>
</g>
<g>
</g>
<g>
</g>
</svg>
